<svg width="248" height="152" viewBox="0 0 248 152" fill="none" xmlns="http://www.w3.org/2000/svg">
<path fill-rule="evenodd" clip-rule="evenodd" d="M37 1C25.9543 1 17 9.9543 17 21V94H3.70158C1.81103 94 0.975919 96.3807 2.45219 97.5617L17 109.2V131C17 142.046 25.9543 151 37 151H227C238.046 151 247 142.046 247 131V21C247 9.95431 238.046 1 227 1H37Z" fill="white"/>
<path d="M17 94V95H18V94H17ZM2.45219 97.5617L3.07689 96.7809L3.07689 96.7809L2.45219 97.5617ZM17 109.2H18V108.719L17.6247 108.419L17 109.2ZM18 21C18 10.5066 26.5066 2 37 2V0C25.402 0 16 9.40202 16 21H18ZM18 94V21H16V94H18ZM3.70158 95H17V93H3.70158V95ZM3.07689 96.7809C2.33875 96.1904 2.75631 95 3.70158 95V93C0.865754 93 -0.386917 96.5711 1.8275 98.3426L3.07689 96.7809ZM17.6247 108.419L3.07689 96.7809L1.8275 98.3426L16.3753 109.981L17.6247 108.419ZM18 131V109.2H16V131H18ZM37 150C26.5066 150 18 141.493 18 131H16C16 142.598 25.402 152 37 152V150ZM227 150H37V152H227V150ZM246 131C246 141.493 237.493 150 227 150V152C238.598 152 248 142.598 248 131H246ZM246 21V131H248V21H246ZM227 2C237.493 2 246 10.5066 246 21H248C248 9.40202 238.598 0 227 0V2ZM37 2H227V0H37V2Z" fill="url(#paint0_linear_4002_4219)"/>
<defs>
<linearGradient id="paint0_linear_4002_4219" x1="1.69763" y1="76" x2="247" y2="76" gradientUnits="userSpaceOnUse">
<stop stop-color="#F7941D"/>
<stop offset="1" stop-color="#27AAE1"/>
</linearGradient>
</defs>
</svg>
