<svg width="57" height="47" viewBox="0 0 57 47" fill="none" xmlns="http://www.w3.org/2000/svg">
<path d="M53.617 3.06682H51.2613V0.829671C51.2613 0.370388 50.8909 0 50.4317 0H45.4092C44.9499 0 44.5795 0.370388 44.5795 0.829671V3.06682H17.0373V0.829671C17.0373 0.370388 16.6669 0 16.2077 0H11.1852C10.7259 0 10.3555 0.370388 10.3555 0.829671V3.06682H8.41466C6.38493 3.06682 4.72559 4.72617 4.72559 6.7559V27.0384C4.72559 27.4977 5.09598 27.8681 5.55526 27.8681C6.01454 27.8681 6.38493 27.4977 6.38493 27.0384V6.7559C6.38493 5.64473 7.28868 4.72617 8.41466 4.72617H53.6318C54.5207 4.72617 55.2467 5.45213 55.2467 6.34107V33.898C55.2467 34.787 54.5207 35.5129 53.6318 35.5129H51.8539V32.3572C51.8539 31.8979 51.4836 31.5276 51.0243 31.5276H42.0757C41.6164 31.5276 41.246 31.8979 41.246 32.3572V35.5129H27.8527L31.0084 34.6536C32.6381 34.2092 34.0753 33.2758 35.142 31.972L40.5052 25.4532C40.6089 25.3198 40.683 25.1569 40.6978 24.9939L41.1719 18.7713C41.2164 18.1639 40.846 17.5565 40.283 17.3194C40.5348 17.1713 40.7126 16.9046 40.7126 16.5934C40.7126 16.1342 40.3422 15.7638 39.883 15.7638H36.2383C35.779 15.7638 35.4087 16.1342 35.4087 16.5934C35.4087 17.0527 35.779 17.4231 36.2383 17.4231H38.9644C38.8755 17.4824 38.7866 17.5565 38.7125 17.6305L35.6605 20.6825C35.0679 21.2752 34.579 22.0159 34.0604 22.6678C33.7789 23.0234 33.8234 23.5568 34.1938 23.8383C34.5493 24.1198 35.0827 24.0753 35.3642 23.7049L36.3272 22.5197L38.7866 24.9791L33.9123 30.9201C33.053 31.9572 31.927 32.698 30.6232 33.0536L17.467 36.8463C16.4447 37.1723 16.9633 38.7576 17.9707 38.4316L20.8598 37.4982V44.4764H19.7041C19.2449 44.4764 18.8745 44.8468 18.8745 45.306C18.8745 45.7653 19.2449 46.1357 19.7041 46.1357H24.8007C25.26 46.1357 25.6304 45.7653 25.6304 45.306C25.6304 44.8468 25.26 44.4764 24.8007 44.4764H22.5339V37.1871H53.6614C55.4689 37.1871 56.9357 35.7204 56.9357 33.9129V6.35588C56.8912 4.53357 55.4245 3.06682 53.617 3.06682ZM46.224 1.65934H49.5872V3.05201H46.224V1.65934ZM12 1.65934H15.3632V3.05201H12V1.65934ZM39.4681 19.1862L39.1718 23.0382L37.3939 21.2604L39.4681 19.1862ZM42.8757 35.5129V33.1869H50.165V35.5129H42.8757Z" fill="#00093C"/>
<path d="M15.6749 44.4747H4.97803V40.0448C4.97803 37.2299 5.62992 34.4297 6.85961 31.9111C7.54113 30.5332 8.96342 29.6443 10.5042 29.6443H24.5494C27.4829 29.6443 30.3423 28.6072 32.5943 26.7256C32.9498 26.4293 32.9943 25.9108 32.698 25.5552C32.4017 25.1996 31.8831 25.1552 31.5275 25.4515C29.5719 27.0812 27.0977 27.985 24.5642 27.985H18.5195C19.4529 27.0071 20.0307 25.6885 20.0307 24.2366V21.1698C22.1789 21.0216 23.8679 19.2438 23.8679 17.0659C23.8679 14.7991 22.0159 12.9471 19.7492 12.9471C18.3565 12.9175 17.0379 13.2435 16.0749 14.2954C15.6008 14.8139 14.9193 15.1102 14.223 15.1102H11.9265C10.0153 15.1102 8.4597 16.6659 8.4597 18.5771V24.8292C8.4597 25.5404 8.62267 26.2367 9.05232 26.8145C9.24492 27.0812 9.48197 27.3034 9.74865 27.4812C10.045 27.6738 10.4598 27.7479 10.6968 27.985C8.4597 27.9405 6.34107 29.1702 5.36324 31.1851C4.01502 33.9408 3.30387 36.9928 3.30387 40.0597V44.4895H0.829673C0.37039 44.4895 0 44.8599 0 45.3192C0 45.7785 0.37039 46.1488 0.829673 46.1488H15.6749C16.1342 46.1488 16.5046 45.7785 16.5046 45.3192C16.5194 44.8451 16.1342 44.4747 15.6749 44.4747ZM14.3711 27.9553C13.9118 27.9257 13.4525 27.8072 13.0377 27.6146C13.2303 27.5109 13.4229 27.3923 13.5859 27.259C14.2822 26.6812 14.6674 25.8367 14.6674 24.8737V21.1698H18.3565V24.2218C18.3565 26.2812 16.6823 27.9701 14.6082 27.9701C14.5193 27.9701 14.4452 27.9701 14.3711 27.9553ZM10.1339 24.8144V18.5622C10.1339 17.5696 10.9487 16.7547 11.9414 16.7547H14.223C15.3934 16.7547 16.5046 16.2658 17.3046 15.4065C17.9565 14.6954 18.8454 14.562 19.764 14.5917C21.1122 14.5917 22.2085 15.688 22.2085 17.0362C22.2085 18.3845 21.1122 19.4808 19.764 19.4808H13.8377C13.3785 19.4808 13.0081 19.8512 13.0081 20.3105V24.8589C13.0081 25.8367 12.1488 26.4441 11.2154 26.2663C10.4746 26.1478 10.1339 25.5404 10.1339 24.8144Z" fill="#00093C"/>
<path d="M28.5342 12.7262H33.0678C33.5271 12.7262 33.8974 12.3558 33.8974 11.8965V8.82967C33.8974 8.37039 33.5271 8 33.0678 8H28.5342C28.0749 8 27.7045 8.37039 27.7045 8.82967V11.8965C27.6897 12.3558 28.0601 12.7262 28.5342 12.7262ZM29.3639 9.65934H32.2381V11.052H29.3639V9.65934Z" fill="#00093C"/>
<path d="M27.6904 18.1035C27.6904 18.5628 28.0608 18.9332 28.5201 18.9332H33.0537C33.513 18.9332 33.8833 18.5628 33.8833 18.1035V15.0367C33.8833 14.5774 33.513 14.207 33.0537 14.207H28.5201C28.0608 14.207 27.6904 14.5774 27.6904 15.0367V18.1035ZM29.3646 15.8812H32.2388V17.2739H29.3646V15.8812Z" fill="#00093C"/>
<path d="M36.2096 11.1867H50.9955C51.4548 11.1867 51.8252 10.8163 51.8252 10.357C51.8252 9.89773 51.4548 9.52734 50.9955 9.52734H36.2096C35.7503 9.52734 35.3799 9.89773 35.3799 10.357C35.3799 10.8163 35.7503 11.1867 36.2096 11.1867Z" fill="#00093C"/>
</svg>
