<svg width="50" height="50" viewBox="0 0 50 50" fill="none" xmlns="http://www.w3.org/2000/svg">
<path d="M28.422 23.7142C28.5685 24.0072 28.8615 24.166 29.1667 24.166C29.2888 24.166 29.4231 24.1415 29.5452 24.0805C29.594 24.0561 34.5019 21.5655 36.9193 20.7963C37.3588 20.662 37.603 20.1859 37.4565 19.7464C37.3222 19.3069 36.8582 19.0627 36.4065 19.197C33.8549 20.0028 28.9836 22.4811 28.776 22.5788C28.3853 22.8108 28.2144 23.3113 28.422 23.7142Z" fill="#00093C"/>
<path d="M29.1672 14.1777C29.2892 14.1777 29.4235 14.1533 29.5456 14.0922C29.5945 14.0678 34.5024 11.5772 36.9197 10.8081C37.3592 10.6738 37.6034 10.1976 37.4569 9.7581C37.3226 9.31859 36.8587 9.07441 36.407 9.20871C33.8553 10.0145 28.984 12.4929 28.7765 12.5905C28.3614 12.7981 28.2027 13.2986 28.4102 13.7137C28.5811 14.0068 28.8741 14.1777 29.1672 14.1777Z" fill="#00093C"/>
<path d="M49.1769 12.5068C48.713 12.5068 48.3467 12.8853 48.3467 13.337V45.8368C48.3467 47.2163 47.2235 48.3396 45.8439 48.3396H25.8338V46.4228C27.0546 45.9955 30.2167 45.0066 33.3299 45.0066C40.5942 45.0066 45.5143 46.6181 45.5631 46.6303C45.8195 46.7158 46.0881 46.667 46.3079 46.5204C46.5276 46.3617 46.6497 46.1176 46.6497 45.849V9.17383C46.6497 8.78314 46.3811 8.4413 46.0026 8.35584C46.0026 8.35584 45.3434 8.20933 44.2324 8.00179C43.7806 7.91632 43.3411 8.22154 43.2679 8.67327C43.1824 9.12499 43.4876 9.56451 43.9394 9.64997C44.3667 9.72322 44.7207 9.79647 45.0015 9.85752V44.738C43.1092 44.2374 38.9216 43.3462 33.3299 43.3462C29.7039 43.3462 26.1268 44.5426 25.028 44.9455C24.0513 44.506 21.0845 43.3462 17.4952 43.3462C11.757 43.3462 7.02004 44.2985 4.99338 44.7746V9.82089C6.65378 9.40579 11.5739 8.34363 17.4952 8.34363C20.5351 8.34363 23.1356 9.29591 24.1611 9.72322V42.516C24.1611 42.8212 24.3199 43.0898 24.5885 43.2363C24.8448 43.3828 25.1745 43.3828 25.4309 43.2241C25.5163 43.1752 33.7694 38.2429 41.0947 35.8011C41.4366 35.6913 41.6685 35.3738 41.6685 35.0076V0.835238C41.6685 0.566645 41.5342 0.310261 41.3145 0.151547C41.0947 -0.00716685 40.8017 -0.0437935 40.5453 0.0538766C33.8793 2.55667 27.1279 6.75649 27.0668 6.79312C26.6762 7.03729 26.5541 7.55006 26.7982 7.94074C27.0424 8.33142 27.5552 8.45351 27.9459 8.20933C28.0069 8.17271 33.8793 4.52229 40.0081 2.05611V34.4093C34.3188 36.3872 28.3732 39.6103 25.8338 41.0631V9.17383C25.8338 8.8564 25.6506 8.5756 25.3698 8.42909C25.2233 8.35584 21.8049 6.67103 17.4952 6.67103C9.96235 6.67103 4.1754 8.2948 3.93122 8.36805C3.57717 8.46572 3.33299 8.79535 3.33299 9.17383V45.849C3.33299 46.1054 3.45508 46.3617 3.66263 46.5082C3.80914 46.6181 3.98006 46.6792 4.16319 46.6792C4.23644 46.6792 4.3219 46.667 4.39516 46.6425C4.4562 46.6303 10.2187 45.0066 17.5074 45.0066C20.5596 45.0066 23.16 45.9588 24.1734 46.3862V48.3396H4.16319C2.7836 48.3396 1.66039 47.2163 1.66039 45.8368V13.337C1.66039 12.8731 1.28192 12.5068 0.830197 12.5068C0.366263 12.5068 0 12.8853 0 13.337V45.8368C0 48.132 1.86794 49.9999 4.16319 49.9999H45.8317C48.127 49.9999 49.9949 48.132 49.9949 45.8368V13.337C50.0071 12.8853 49.6286 12.5068 49.1769 12.5068Z" fill="#00093C"/>
<path d="M28.422 18.722C28.5685 19.0151 28.8615 19.1738 29.1667 19.1738C29.2888 19.1738 29.4231 19.1494 29.5452 19.0883C29.594 19.0639 34.5019 16.5733 36.9193 15.8042C37.3588 15.6699 37.603 15.1937 37.4565 14.7542C37.3222 14.3147 36.8582 14.0705 36.4065 14.2048C33.8549 15.0106 28.9836 17.489 28.776 17.5866C28.3853 17.8064 28.2144 18.3069 28.422 18.722Z" fill="#00093C"/>
<path d="M28.422 28.7181C28.5685 29.0112 28.8615 29.1699 29.1667 29.1699C29.2888 29.1699 29.4231 29.1454 29.5452 29.0844C29.594 29.06 34.5019 26.5694 36.9193 25.8002C37.3588 25.666 37.603 25.1898 37.4565 24.7503C37.3222 24.3108 36.8582 24.0666 36.4065 24.2009C33.8549 25.0067 28.9836 27.4851 28.776 27.5827C28.3853 27.8025 28.2144 28.303 28.422 28.7181Z" fill="#00093C"/>
<path d="M20.1938 15.4736C15.0417 14.265 9.19369 15.8033 8.94952 15.8643C8.51 15.9864 8.24141 16.4381 8.3635 16.8899C8.46117 17.2561 8.80301 17.5125 9.16928 17.5125C9.24253 17.5125 9.31578 17.5003 9.38903 17.4881C9.45008 17.4759 15.0783 15.9864 19.8153 17.1096C20.267 17.2195 20.7066 16.9387 20.8164 16.487C20.9263 16.023 20.6455 15.5713 20.1938 15.4736Z" fill="#00093C"/>
<path d="M20.1938 20.4656C15.0417 19.2569 9.19369 20.7952 8.94952 20.8685C8.51 20.9905 8.24141 21.4423 8.3635 21.894C8.46117 22.2602 8.80301 22.5166 9.16928 22.5166C9.24253 22.5166 9.31578 22.5044 9.38903 22.4922C9.45008 22.48 15.0783 20.9905 19.8153 22.1137C20.267 22.2236 20.7066 21.9428 20.8164 21.4911C20.9263 21.0272 20.6455 20.5754 20.1938 20.4656Z" fill="#00093C"/>
<path d="M28.422 33.726C28.5685 34.019 28.8615 34.1777 29.1667 34.1777C29.2888 34.1777 29.4231 34.1533 29.5452 34.0922C29.594 34.0678 34.5019 31.5772 36.9193 30.8081C37.3588 30.6738 37.603 30.1976 37.4565 29.7581C37.3222 29.3186 36.8582 29.0744 36.4065 29.2087C33.8549 30.0145 28.9836 32.4929 28.776 32.5905C28.3853 32.8103 28.2144 33.3109 28.422 33.726Z" fill="#00093C"/>
<path d="M20.1938 25.4734C15.0417 24.2647 9.19369 25.803 8.94952 25.8763C8.51 25.9984 8.24141 26.4501 8.3635 26.9018C8.46117 27.2803 8.80301 27.5244 9.16928 27.5244C9.24253 27.5244 9.31578 27.5122 9.38903 27.5C9.45008 27.4878 15.0783 25.9984 19.8153 27.1216C20.267 27.2314 20.7066 26.9506 20.8164 26.4989C20.9263 26.0228 20.6455 25.5833 20.1938 25.4734Z" fill="#00093C"/>
<path d="M20.1938 35.4697C15.0417 34.2611 9.19369 35.7994 8.94952 35.8604C8.51 35.9825 8.24141 36.4342 8.3635 36.886C8.46117 37.2644 8.80301 37.5086 9.16928 37.5086C9.24253 37.5086 9.31578 37.4964 9.38903 37.4842C9.45008 37.472 15.0783 35.9825 19.8153 37.1057C20.267 37.2034 20.7066 36.9348 20.8164 36.4831C20.9263 36.0313 20.6455 35.5796 20.1938 35.4697Z" fill="#00093C"/>
<path d="M20.1938 30.4773C15.0417 29.2686 9.19369 30.8069 8.94952 30.8802C8.51 31.0023 8.24141 31.454 8.3635 31.9057C8.46117 32.2842 8.80301 32.5284 9.16928 32.5284C9.24253 32.5284 9.31578 32.5161 9.38903 32.5039C9.45008 32.4917 15.0783 31.0023 19.8153 32.1255C20.267 32.2353 20.7066 31.9545 20.8164 31.5028C20.9263 31.0267 20.6455 30.575 20.1938 30.4773Z" fill="#00093C"/>
</svg>
